<svg width="1024" height="600" 
    xmlns="http://www.w3.org/2000/svg">
    <defs>
        <style>.cls-1{fill:#0000000d8;}</style>
    </defs>
    <title>云听LOGO</title>
    <g>
        <title>background</title>
        <rect fill="none" id="canvas_background" height="602" width="1026" y="-1" x="-1"/>
    </g>
    <g>
        <title>Layer 1</title>
        <g stroke="null" id="svg_4">
            <path stroke="null" id="svg_1" d="m173.17007,492.9153l5.622611,0.112452l3.134605,95.970937l109.380863,-95.661693l257.304723,-0.147594l0.983957,0a158.60682,158.60682 0 0 0 151.951054,-158.803611c0,-69.36896 -44.109381,-129.537923 -108.860772,-150.87573c-29.757667,-103.80745 -123.697436,-175.15838 -232.965847,-175.15838c-94.881556,0 -179.832175,54.447956 -219.661344,139.735933a175.580076,175.580076 0 0 0 -130.810038,169.732561c0,92.161618 71.99753,169.092989 163.920187,175.095126zm-12.650874,-302.700276l12.201065,-2.298242l4.751106,-11.484182a196.201001,196.201001 0 0 1 182.228813,-122.432348c92.463833,0 171.363118,62.902957 191.871591,152.963124l3.162719,13.887848l13.866764,3.261114a113.302634,113.302634 0 0 1 -20.550642,223.435521l-273.926566,0.16165l-49.73902,43.497922l-1.405653,-43.195707l-47.384552,-0.702826c-67.717318,-4.730021 -120.689339,-61.511361 -120.689339,-129.523866a129.861223,129.861223 0 0 1 105.641827,-127.555952l-0.028113,-0.014057z" class="cls-1"/>
            <path stroke="null" id="svg_2" d="m844.854174,493.041809l5.622611,-0.112452c91.915629,-6.016193 163.913159,-82.933508 163.913159,-175.116211a175.587104,175.587104 0 0 0 -130.788953,-169.739589c-39.850253,-85.287976 -124.793845,-139.728904 -219.682429,-139.728904a239.867601,239.867601 0 0 0 -108.783461,25.730472a22.827799,22.827799 0 0 0 20.515501,40.763928a196.93194,196.93194 0 0 1 270.517858,101.565434l4.69488,11.498239l12.201065,2.298242a129.861223,129.861223 0 0 1 105.648855,127.619207c0,68.012505 -52.972021,124.793845 -120.689339,129.523866l-47.384552,0.702826l-1.405653,43.195707l-49.73902,-43.497922l-63.528473,0l0,0a22.827799,22.827799 0 0 0 0,45.683712l46.386538,0l109.380863,95.661693l3.120549,-96.048247z" class="cls-1"/>
            <path stroke="null" id="svg_3" d="m332.325095,406.320067a166.225457,166.225457 0 0 0 151.107663,-97.489041a22.827799,22.827799 0 1 0 -41.593263,-18.828718a120.225474,120.225474 0 0 1 -219.056913,0a22.827799,22.827799 0 1 0 -41.586234,18.842774a166.218429,166.218429 0 0 0 151.128748,97.474985z" class="cls-1"/>
        </g>
    </g>
</svg>