<?xml version="1.0" encoding="UTF-8"?>
<svg width="108px" height="71px" viewBox="0 0 108 71" version="1.1" xmlns="http://www.w3.org/2000/svg" xmlns:xlink="http://www.w3.org/1999/xlink">
    <title>编组 13</title>
    <g id="页面-1" stroke="none" stroke-width="1" fill="none" fill-rule="evenodd">
        <g id="1.1工单看板移动备份" transform="translate(-811.000000, -445.000000)">
            <g id="编组-13" transform="translate(811.000000, 445.000000)">
                <polygon id="路径-2" fill="#000000" opacity="0.05" points="-2.96328069e-14 64 19.4689199 71 84.6046197 71 108 64.1206897"></polygon>
                <polygon id="路径" fill="#C7C7C7" points="16 40.9910381 24 33 80 33 88 41"></polygon>
                <rect id="矩形" fill="#F6F6F6" x="24" y="0" width="56" height="70" rx="4"></rect>
                <rect id="矩形" fill="#CBCBCB" x="30" y="6" width="26" height="4"></rect>
                <rect id="矩形备份-7" fill="#CBCBCB" x="30" y="14" width="16" height="4"></rect>
                <path d="M71.2,19 L74,21.8 L69.8,26 L74,30.2 L71.2,33 L67,28.8 L62.8,33 L60,30.2 L64.2,26 L60,21.8 L62.8,19 L67,23.2 L71.2,19 Z" id="形状结合" fill="#CBCBCB"></path>
                <rect id="矩形备份-2" fill="#CBCBCB" x="30" y="22" width="4" height="4"></rect>
                <rect id="矩形备份-3" fill="#CBCBCB" x="36" y="22" width="4" height="4"></rect>
                <path d="M37,20 L63,20 C65.209139,20 67,21.790861 67,24 L67,88 C67,90.209139 65.209139,92 63,92 L37,92 L37,92 L37,20 Z" id="矩形备份" fill="#E5E5E5" transform="translate(52.000000, 56.000000) rotate(-270.000000) translate(-52.000000, -56.000000) "></path>
                <path d="M35,40 L69,40 L69,48 C69,50.209139 67.209139,52 65,52 L39,52 C36.790861,52 35,50.209139 35,48 L35,40 L35,40 Z" id="矩形" fill="#F5F5F7"></path>
                <polygon id="路径-2" fill="#000000" opacity="0.05" points="-2.96328069e-14 64 19.4689199 71 84.6046197 71 108 64.1206897"></polygon>
                <polygon id="路径" fill="#C7C7C7" points="16 40.9910381 24 33 80 33 88 41"></polygon>
                <rect id="矩形" fill="#F6F6F6" x="24" y="0" width="56" height="70" rx="4"></rect>
                <rect id="矩形" fill="#CBCBCB" x="30" y="6" width="26" height="4"></rect>
                <rect id="矩形备份-7" fill="#CBCBCB" x="30" y="14" width="16" height="4"></rect>
                <path d="M71.2,19 L74,21.8 L69.8,26 L74,30.2 L71.2,33 L67,28.8 L62.8,33 L60,30.2 L64.2,26 L60,21.8 L62.8,19 L67,23.2 L71.2,19 Z" id="形状结合" fill="#CBCBCB"></path>
                <rect id="矩形备份-2" fill="#CBCBCB" x="30" y="22" width="4" height="4"></rect>
                <rect id="矩形备份-3" fill="#CBCBCB" x="36" y="22" width="4" height="4"></rect>
                <path d="M37,20 L63,20 C65.209139,20 67,21.790861 67,24 L67,88 C67,90.209139 65.209139,92 63,92 L37,92 L37,92 L37,20 Z" id="矩形备份" fill="#E5E5E5" transform="translate(52.000000, 56.000000) rotate(-270.000000) translate(-52.000000, -56.000000) "></path>
                <path d="M35,40 L69,40 L69,48 C69,50.209139 67.209139,52 65,52 L39,52 C36.790861,52 35,50.209139 35,48 L35,40 L35,40 Z" id="矩形" fill="#F5F5F7"></path>
            </g>
        </g>
    </g>
</svg>